<svg width="36" height="38" viewBox="0 0 36 38" fill="none" xmlns="http://www.w3.org/2000/svg">
<path d="M19.7419 2.09024C19.7419 1.61744 19.5584 1.16401 19.2317 0.829691C18.9051 0.495374 18.462 0.307556 18 0.307556C17.538 0.307556 17.0949 0.495374 16.7683 0.829691C16.4416 1.16401 16.2581 1.61744 16.2581 2.09024V14.4264L10.1985 8.22266C10.0377 8.05247 9.84541 7.91676 9.63284 7.82343C9.42028 7.73011 9.19168 7.68104 8.96039 7.6791C8.72909 7.67715 8.49974 7.72237 8.2857 7.81211C8.07167 7.90185 7.87724 8.03431 7.71376 8.20177C7.55028 8.36923 7.42103 8.56833 7.33355 8.78745C7.24606 9.00658 7.2021 9.24134 7.20421 9.47804C7.20633 9.71474 7.25449 9.94864 7.34588 10.1661C7.43728 10.3835 7.57007 10.5802 7.73652 10.7446L13.7938 16.9459H1.74194C1.27995 16.9459 0.836877 17.1337 0.510201 17.468C0.183525 17.8024 0 18.2558 0 18.7286C0 19.2014 0.183525 19.6548 0.510201 19.9891C0.836877 20.3234 1.27995 20.5113 1.74194 20.5113H13.7961L7.73419 26.7126C7.5679 26.8771 7.43529 27.0739 7.34409 27.2915C7.2529 27.509 7.20496 27.7429 7.20306 27.9796C7.20116 28.2163 7.24534 28.4511 7.33303 28.6701C7.42071 28.8891 7.55015 29.0881 7.71378 29.2554C7.87741 29.4227 8.07196 29.555 8.28608 29.6445C8.5002 29.7341 8.7296 29.7791 8.96089 29.7769C9.19218 29.7747 9.42073 29.7254 9.63321 29.6319C9.84569 29.5384 10.0378 29.4025 10.1985 29.2321L16.2581 23.0332V35.3669C16.2581 35.8397 16.4416 36.2932 16.7683 36.6275C17.0949 36.9618 17.538 37.1496 18 37.1496C18.462 37.1496 18.9051 36.9618 19.2317 36.6275C19.5584 36.2932 19.7419 35.8397 19.7419 35.3669V23.0308L25.8015 29.2345C25.9623 29.4047 26.1546 29.5404 26.3672 29.6337C26.5797 29.7271 26.8083 29.7761 27.0396 29.7781C27.2709 29.78 27.5003 29.7348 27.7143 29.6451C27.9283 29.5553 28.1228 29.4229 28.2862 29.2554C28.4497 29.0879 28.579 28.8888 28.6665 28.6697C28.7539 28.4506 28.7979 28.2158 28.7958 27.9791C28.7937 27.7424 28.7455 27.5085 28.6541 27.2911C28.5627 27.0736 28.4299 26.877 28.2635 26.7126L22.2062 20.5113H34.2581C34.7201 20.5113 35.1631 20.3234 35.4898 19.9891C35.8165 19.6548 36 19.2014 36 18.7286C36 18.2558 35.8165 17.8024 35.4898 17.468C35.1631 17.1337 34.7201 16.9459 34.2581 16.9459H22.2039L28.2658 10.7446C28.583 10.4082 28.7583 9.95779 28.7542 9.49038C28.75 9.02296 28.5666 8.57593 28.2434 8.24556C27.9203 7.91519 27.4833 7.72792 27.0266 7.72408C26.5699 7.72024 26.1299 7.90014 25.8015 8.22503L19.7419 14.424V2.09024Z" fill="url(#paint0_linear_66_39)"/>
<defs>
<linearGradient id="paint0_linear_66_39" x1="18" y1="0.307556" x2="18" y2="37.1496" gradientUnits="userSpaceOnUse">
<stop stop-color="#B4801E"/>
<stop offset="1" stop-color="#4E370D"/>
</linearGradient>
</defs>
</svg>
