<svg width="54" height="54" viewBox="0 0 54 54" fill="none" xmlns="http://www.w3.org/2000/svg">
<path d="M52.3125 19.4164H32.9754L27 1.6875L21.0263 19.4164H1.6875L17.3315 30.375L11.356 48.1022L27 37.1444L42.644 48.1022L36.6685 30.375L52.3125 19.4164Z" fill="white"/>
<path d="M39.0167 17.1673L42.3293 7.4751L33.5213 13.5594L34.7541 17.1673H39.0167ZM23.5575 42.219L27.0068 52.3145L30.4577 42.219L27.0068 39.8363L23.5575 42.219ZM42.768 28.9485L39.5407 31.1777L40.9109 35.1872H51.7987L42.768 28.9485ZM20.4905 13.5594L11.6842 7.4751L14.9968 17.1673H19.2594L20.4905 13.5594ZM11.2455 28.9485L2.21484 35.1872H13.1017L14.4728 31.1777L11.2455 28.9485Z" fill="#896217"/>
</svg>
